<svg class="svg-icon" style="width: 1em; height: 1em;vertical-align: middle;fill: #FFF;overflow: hidden;" viewBox="0 0 1024 1024" version="1.1" xmlns="http://www.w3.org/2000/svg"><path d="M125.1 528.9c-8.8 0-16-7.1-16-16 0-8.8 7.1-16 16-16l772.1-1.4c8.8 0 16 7.1 16 16 0 8.8-7.1 16-16 16l-772.1 1.4c0.1 0 0.1 0 0 0z" fill="#FFF" /><path d="M125.1 528.9c-8.8 0-16-7.1-16-16 0-8.8 7.1-16 16-16l772.1-1.4c8.8 0 16 7.1 16 16 0 8.8-7.1 16-16 16l-772.1 1.4c0.1 0 0.1 0 0 0z" fill="" /><path d="M125.1 528.9c-8.8 0-16-7.1-16-16 0-8.8 7.1-16 16-16l772.1-1.4c8.8 0 16 7.1 16 16 0 8.8-7.1 16-16 16l-772.1 1.4c0.1 0 0.1 0 0 0z" fill="" /><path d="M705.4 861.9c-5.5 0-10.9-2.8-13.8-8L303.2 186.6c-4.4-7.6-1.9-17.4 5.8-21.9 7.6-4.4 17.4-1.9 21.9 5.8l388.4 667.3c4.4 7.6 1.9 17.4-5.8 21.9-2.6 1.5-5.3 2.2-8.1 2.2z" fill="" /><path d="M318.4 862.7c-2.7 0-5.5-0.7-8-2.1-7.7-4.4-10.3-14.2-5.9-21.9l385.6-668.9c4.4-7.7 14.2-10.3 21.9-5.9 7.7 4.4 10.3 14.2 5.9 21.9L332.3 854.7c-3 5.1-8.4 8-13.9 8z" fill="" /><path d="M318.4 862.7c-2.7 0-5.5-0.7-8-2.1-7.7-4.4-10.3-14.2-5.9-21.9l385.6-668.9c4.4-7.7 14.2-10.3 21.9-5.9 7.7 4.4 10.3 14.2 5.9 21.9L332.3 854.7c-3 5.1-8.4 8-13.9 8z" fill="" /></svg>